<svg width="34" height="32" xmlns="http://www.w3.org/2000/svg"><path d="M26.134 1c2.788 0 4.39.626 5.504 1.08.898.367 1.257.732 1.188 1.567-.08.941-.627 3.38-1.188 5.297-.188.65-.554.977-1.218.977-.732 0-1.222-.455-1.19-1.292.022-.66.109-1.32.109-2.47 0-1.012-1.217-2.338-3.38-2.338-1.986 0-3.381 1.046-3.381 2.822 0 1.535.66 2.334 1.571 3.382 1.392 1.6 2.09 2.369 3.762 4.215 1.573 1.736 3.102 4.074 3.102 7.661 0 4.46-3.797 8.266-9.931 8.266-3.311 0-5.646-1.188-6.795-1.75-.507-.241-.794-.592-.697-1.353.069-.56.766-3.453 1.46-5.645.307-.958.666-1.466 1.537-1.466.625 0 1.01.382 1.01 1.254 0 .53-.085 1.232-.138 2.265-.056 1.048-.247 3.657 3.969 3.657 1.92 0 3.242-1.253 3.242-2.89 0-1.253-.22-2.524-1.742-4.144a158.643 158.643 0 01-3.066-3.348c-2.335-2.612-3.275-4.495-3.275-7.49 0-5.33 4.217-8.257 9.547-8.257zm-12.59.417c1.846 0 2.127.385 2.127 1.117 0 .66-.313.98-.943 1.22-.556.212-.872.416-1.08 1.392-.696 3.238-1.637 8.954-3.105 20.032-.028.248-.064.63-.064.836 0 1.15.007 1.385.695 1.708.496.231.66.562.66 1.077 0 .768-.621 1.09-1.53 1.09-1.011 0-2.658-.19-4.22-.19-1.357.002-2.469.19-3.483.19-1.288 0-1.6-.385-1.6-1.124 0-.552.282-.86.73-1.077.699-.34 1.19-.488 1.499-2.058C4.55 18.877 6.06 6.924 6.155 5.844c.147-1.6-.036-1.812-.555-2.09-.453-.244-.735-.594-.735-1.152 0-.731.524-1.185 2.055-1.185.837 0 1.92.176 3.488.176s2.368-.176 3.136-.176z" fill="#FFF"/></svg>