<?xml version="1.0" encoding="utf-8"?>
<!-- Generator: Adobe Illustrator 23.0.6, SVG Export Plug-In . SVG Version: 6.00 Build 0)  -->
<svg version="1.1" xmlns="http://www.w3.org/2000/svg" xmlns:xlink="http://www.w3.org/1999/xlink" x="0px" y="0px"
	 viewBox="0 0 1920 1080" style="enable-background:new 0 0 1920 1080;" xml:space="preserve">
<style type="text/css">
	.st0{fill:#25BFE8;}
	.st1{fill:#F9F9F9;stroke:#FCFCFC;stroke-miterlimit:10;}
	.st2{fill:#14B900;}
	.st3{fill:#5E4F06;}
	.st4{fill:#006A02;}
	.st5{fill:#0C5604;}
	.st6{fill:#686A02;}
	.st7{fill:#4A8E09;}
	.st8{fill:#E9F400;}
	.st9{fill:#1B1E1B;}
	.st10{fill:none;stroke:#F9F9F9;stroke-width:6;stroke-miterlimit:10;}
	.st11{fill:none;stroke:#F9F9F9;stroke-width:6;stroke-miterlimit:10;stroke-dasharray:75.3677,72.353;}
</style>
<g id="taivas">
	<rect x="2" y="-2" class="st0" width="1921" height="278"/>
	<g id="pilvi">
		<circle class="st1" cx="1457.6" cy="114.8" r="65.4"/>
		
			<ellipse transform="matrix(1.332222e-02 -0.9999 0.9999 1.332222e-02 1228.0106 1525.6489)" class="st1" cx="1387.1" cy="140.6" rx="85.1" ry="84.9"/>
		
			<ellipse transform="matrix(1.332222e-02 -0.9999 0.9999 1.332222e-02 1137.5134 1462.2305)" class="st1" cx="1309.7" cy="154.7" rx="95.2" ry="89.8"/>
		<circle class="st1" cx="1244.4" cy="145.1" r="65.4"/>
	</g>
	<g id="pilvi_1_">
		<circle class="st1" cx="389.4" cy="186.8" r="57.3"/>
		<ellipse class="st1" cx="450.8" cy="163.4" rx="74.4" ry="74.5"/>
		<ellipse class="st1" cx="518.4" cy="150.1" rx="78.7" ry="83.4"/>
		<path class="st1" d="M663,142.7c0,31.6-25.6,57.3-57.3,57.3s-392.2,134.5-57.3-57.3c27.5-15.7,25.6-57.3,57.3-57.3
			S663,111.1,663,142.7z"/>
	</g>
</g>
<g id="puu">
	<rect y="275" class="st2" width="1920" height="413"/>
	<g>
		<polygon class="st3" points="224.6,509.6 205.2,506.8 136,455.8 155.4,458.5 		"/>
	</g>
	<polygon class="st4" points="412.1,292.9 308.3,475.9 516,475.9 	"/>
	<g>
		<path class="st5" d="M-9.6,1049.6c-1.9-0.2-2.7,1.3-0.8,1.6c0.4,0.1,0.9,0.1,1.3,0.2v-1.7C-9.2,1049.7-9.4,1049.7-9.6,1049.6z"/>
		<path class="st5" d="M1912,1051.3c-0.3,0-0.7,0-1,0v1.6c0.3,0,0.7,0,1,0C1913.9,1052.9,1913.9,1051.3,1912,1051.3z"/>
		<path class="st5" d="M959.9,1015"/>
		<path class="st5" d="M1529.8,1048.5"/>
		<path class="st5" d="M1480.7,1048.6"/>
	</g>
	<path class="st0" d="M513,183"/>
	<polygon class="st4" points="1798.2,311.2 1721.6,459.2 1874.9,459.2 	"/>
	<polygon class="st4" points="1798.7,368.2 1694.9,551.2 1902.6,551.2 	"/>
	<rect x="1774" y="516" class="st6" width="63" height="160"/>
	<polyline class="st4" points="1797.9,422 1720,576 1875.8,576 1797.9,422 	"/>
	<g>
		<path class="st7" d="M1603.6,563.6c-6.7,0-13.9-1.8-20.9-3.5c-7.3-1.8-14.7-3.6-21.9-3.6s-14.7,1.9-21.9,3.6
			c-7,1.7-14.2,3.5-20.9,3.5c-3.4,0-6.3-0.4-9.1-1.3c-9.6-3.1-16.8-11.7-23.7-19.9c-4.6-5.6-9.4-11.3-14.9-15.3
			c-5.6-4.1-12.6-6.9-19.4-9.6c-9.9-4-20.2-8.2-26-16.2c-5.8-8-6.6-18.9-7.3-29.6c-0.5-7.3-1.1-14.9-3.2-21.6
			c-2-6.3-6-12.6-9.8-18.6c-5.8-9.2-11.7-18.7-11.7-29s6-19.8,11.7-29c3.8-6,7.7-12.3,9.8-18.6c2.2-6.7,2.7-14.2,3.2-21.6
			c0.8-10.6,1.6-21.6,7.3-29.6c5.9-8.1,16.1-12.2,26-16.2c6.8-2.7,13.8-5.6,19.4-9.6c5.5-4,10.3-9.7,14.9-15.3
			c6.9-8.3,14-16.8,23.7-19.9c2.8-0.9,5.7-1.3,9.1-1.3c6.7,0,13.9,1.8,20.9,3.5c7.3,1.8,14.7,3.6,21.9,3.6c7.2,0,14.7-1.9,21.9-3.6
			c7-1.7,14.2-3.5,20.9-3.5c3.4,0,6.3,0.4,9.1,1.3c9.6,3.1,16.8,11.7,23.7,19.9c4.6,5.5,9.4,11.3,14.9,15.3
			c5.6,4.1,12.6,6.9,19.4,9.6c9.9,4,20.2,8.2,26,16.2c5.8,8,6.6,18.9,7.3,29.6c0.5,7.3,1.1,14.9,3.2,21.6c2,6.3,6,12.6,9.8,18.6
			c5.8,9.2,11.7,18.7,11.7,29c0,10.3-6,19.8-11.7,29c-3.8,6-7.7,12.3-9.8,18.6c-2.2,6.7-2.7,14.2-3.2,21.6
			c-0.8,10.6-1.6,21.6-7.3,29.6c-5.9,8.1-16.1,12.2-26,16.2c-6.8,2.7-13.8,5.6-19.4,9.6c-5.5,4-10.3,9.7-14.9,15.3
			c-6.9,8.3-14,16.8-23.7,19.9C1609.9,563.2,1607,563.6,1603.6,563.6z"/>
		<path class="st5" d="M1603.6,240.8v1h0c3.3,0,6.2,0.4,9,1.3c9.5,3.1,16.6,11.6,23.4,19.8c4.7,5.6,9.5,11.3,15,15.4
			c5.6,4.1,12.7,6.9,19.5,9.7c9.9,4,20,8.1,25.8,16c5.7,7.8,6.5,18.3,7.3,29.3c0.5,7.4,1.1,15,3.3,21.7c2.1,6.4,6,12.6,9.8,18.7
			c5.7,9.1,11.7,18.5,11.7,28.7c0,10.2-5.9,19.6-11.7,28.7c-3.8,6.1-7.8,12.3-9.8,18.7c-2.2,6.7-2.7,14.3-3.3,21.7
			c-0.8,11-1.5,21.5-7.3,29.3c-5.8,7.9-16,12.1-25.8,16c-6.8,2.8-13.8,5.6-19.5,9.7c-5.5,4-10.4,9.8-15,15.4
			c-6.9,8.2-14,16.7-23.4,19.8c-2.7,0.9-5.6,1.3-9,1.3c-6.6,0-13.5-1.7-20.8-3.5c-7.3-1.8-14.8-3.7-22.1-3.7
			c-7.2,0-14.8,1.9-22.1,3.7c-7.3,1.8-14.2,3.5-20.8,3.5c-3.3,0-6.2-0.4-9-1.3c-9.5-3.1-16.6-11.6-23.4-19.8
			c-4.7-5.6-9.5-11.3-15-15.4c-5.6-4.1-12.7-6.9-19.5-9.7c-9.9-4-20-8.1-25.8-16c-5.7-7.8-6.5-18.3-7.3-29.3
			c-0.5-7.4-1.1-15-3.3-21.7c-2.1-6.4-6-12.6-9.8-18.7c-5.7-9.1-11.7-18.5-11.7-28.7c0-10.2,5.9-19.6,11.7-28.7
			c3.8-6.1,7.8-12.3,9.8-18.7c2.2-6.7,2.7-14.3,3.3-21.7c0.8-11,1.5-21.5,7.3-29.3c5.8-7.9,16-12.1,25.8-16
			c6.8-2.8,13.8-5.6,19.5-9.7c5.5-4,10.4-9.8,15-15.4c6.9-8.2,14-16.7,23.4-19.8c2.7-0.9,5.6-1.3,9-1.3c6.6,0,13.5,1.7,20.8,3.5
			c7.3,1.8,14.8,3.7,22.1,3.7c7.2,0,14.8-1.9,22.1-3.7c7.3-1.8,14.2-3.5,20.8-3.5L1603.6,240.8 M1603.6,240.8
			c-13.6,0-28.7,7.2-42.8,7.2c-14.1,0-29.2-7.2-42.8-7.2c-3.2,0-6.3,0.4-9.3,1.4c-16.3,5.3-25.2,25.4-38.7,35.3
			c-13.7,10-35.5,12.3-45.5,26c-9.9,13.6-5.4,35-10.7,51.3c-5.1,15.7-21.5,30.3-21.5,47.8c0,17.4,16.4,32,21.5,47.8
			c5.3,16.3,0.8,37.7,10.7,51.3c10,13.7,31.8,16,45.5,26c13.6,9.9,22.4,30,38.7,35.3c3,1,6.1,1.4,9.3,1.4c13.6,0,28.7-7.2,42.8-7.2
			c14.1,0,29.2,7.2,42.8,7.2c3.2,0,6.3-0.4,9.3-1.4c16.3-5.3,25.2-25.4,38.7-35.3c13.7-10,35.5-12.3,45.5-26
			c9.9-13.6,5.4-35,10.7-51.3c5.1-15.7,21.5-30.3,21.5-47.8c0-17.4-16.4-32-21.5-47.8c-5.3-16.3-0.8-37.7-10.7-51.3
			c-10-13.7-31.8-16-45.5-26c-13.6-9.9-22.4-30-38.7-35.3C1609.9,241.2,1606.8,240.8,1603.6,240.8L1603.6,240.8z"/>
	</g>
	<g>
		<path class="st3" d="M1549.4,839.5c1.6-32.6,6.1-66.9,10.5-100.1c10.8-82.2,22-167.2-10.2-232.8c3.5,0.4,16.1,1.7,27.3,1.7
			c0,0,0,0,0,0c7.7,0,13.3-0.6,16.6-1.8c0,0,0,0,0,0c0,0,0.1,0,0.1,0.1c7.6,7.9,2.8,220.9-0.8,332.9H1549.4z"/>
		<path class="st5" d="M1593.5,507c1,1.3,3,9.6,3.6,54.8c0.4,28,0.1,66.5-0.7,114.3c-1.3,76.7-3.7,153.4-4,162.8h-42.6
			c1.6-32.4,6.1-66.5,10.5-99.5c10.8-81.9,22-166.6-9.8-232.3c4.4,0.5,16,1.6,26.4,1.6C1584.6,508.8,1590.1,508.2,1593.5,507
			 M1593.6,506c-0.1,0-0.1,0-0.2,0c-3.7,1.3-9.8,1.8-16.4,1.8c-13.2,0-28.1-1.8-28.1-1.8c45.8,92.1,5.5,220.4,0,334h44.6
			C1593.4,840,1604.3,505.9,1593.6,506L1593.6,506z"/>
	</g>
	<g>
		<polygon class="st3" points="1573.2,569.9 1553.8,567.2 1484.6,516.1 1504,518.8 		"/>
	</g>
	<g>
		<path class="st3" d="M180.8,659.4c2.3-32.6,8.9-66.9,15.3-100.1c15.8-82.2,32.1-167.2-14.8-232.8c4.6,0.4,23.4,1.7,40,1.7
			c0,0,0,0,0,0c11.2,0,19.3-0.6,24.1-1.8c0.1,0,0.1,0,0.2,0c0.2,0,0.4,0.1,0.6,0.4c13.3,13.9-0.8,318.7-1.4,332.7H180.8z"/>
		<path class="st5" d="M245.6,325.9v1c0,0,0.2,0.1,0.3,0.2c3.1,3.3,7.8,29.9,4.3,171.5c-1.9,75.9-5.3,151.1-5.8,160.4h-63
			c2.4-32.4,8.9-66.5,15.3-99.5c15.7-82,32-166.7-14.3-232.4c6,0.4,23.4,1.6,39,1.6c11.3,0,19.4-0.6,24.2-1.8c0,0,0,0,0,0
			L245.6,325.9 M245.6,325.9c-0.1,0-0.2,0-0.3,0c-5.3,1.3-14.3,1.8-24,1.8c-19.3,0-41-1.8-41-1.8c66.8,92.1,8,220.4,0,334h65
			C245.3,659.9,261.1,325.9,245.6,325.9L245.6,325.9z"/>
	</g>
	<polygon class="st4" points="411.6,248 335,396 488.3,396 	"/>
	<rect x="377" y="483" class="st6" width="63" height="160"/>
	<polyline class="st4" points="418.7,301 286.3,566 551.2,566 418.7,301 	"/>
	<g>
		<path class="st7" d="M83.8,572.1c-3.2,0-7.1-2.6-10.8-5c-4-2.6-8.1-5.4-11.9-5.4s-7.9,2.7-11.9,5.4c-3.7,2.5-7.6,5-10.8,5
			c-0.6,0-1.1-0.1-1.7-0.3c-3.7-1.2-5.7-6.5-7.6-11.5c-1.6-4.4-3.3-8.9-6.1-11c-2.9-2.1-7.8-2.3-12.5-2.5
			c-5.4-0.2-10.9-0.4-13.2-3.6c-2.2-3.1-0.8-8.4,0.7-13.5c1.3-4.5,2.6-9.2,1.5-12.7c-1.1-3.3-4.6-6.1-8.4-9.1
			c-4.3-3.4-8.7-6.9-8.7-10.9s4.4-7.5,8.7-10.9c3.8-3,7.3-5.8,8.4-9.1c1.1-3.5-0.2-8.2-1.5-12.7c-1.4-5.1-2.9-10.4-0.7-13.5
			c2.3-3.1,7.8-3.4,13.2-3.6c4.7-0.2,9.5-0.4,12.5-2.5c2.9-2.1,4.5-6.6,6.1-11c1.9-5.1,3.8-10.3,7.6-11.5c0.5-0.2,1.1-0.3,1.7-0.3
			c3.2,0,7.1,2.6,10.8,5c4,2.6,8.1,5.4,11.9,5.4S69,429.6,73,427c3.7-2.5,7.6-5,10.8-5c0.6,0,1.1,0.1,1.7,0.3
			c3.7,1.2,5.7,6.5,7.6,11.5c1.6,4.4,3.3,8.9,6.1,11c2.9,2.1,7.8,2.3,12.5,2.5c5.4,0.2,10.9,0.4,13.2,3.6c2.2,3.1,0.8,8.4-0.7,13.5
			c-1.3,4.5-2.6,9.2-1.5,12.7c1.1,3.3,4.6,6.1,8.4,9.1c4.3,3.4,8.7,6.9,8.7,10.9s-4.4,7.5-8.7,10.9c-3.8,3-7.3,5.8-8.4,9.1
			c-1.1,3.5,0.2,8.2,1.5,12.7c1.4,5.1,2.9,10.4,0.7,13.5c-2.3,3.1-7.8,3.4-13.2,3.6c-4.7,0.2-9.5,0.4-12.4,2.5
			c-2.9,2.1-4.5,6.6-6.1,11c-1.9,5.1-3.8,10.3-7.6,11.5C85,572,84.4,572.1,83.8,572.1z"/>
		<path class="st5" d="M38.5,422.4c3.1,0,6.9,2.5,10.5,5c4,2.7,8.2,5.5,12.1,5.5c3.9,0,8.1-2.8,12.1-5.5c3.7-2.4,7.5-5,10.5-5
			c0.5,0,1,0.1,1.5,0.2c3.5,1.1,5.4,6.3,7.2,11.2c1.6,4.4,3.3,9,6.3,11.2c3,2.2,8,2.4,12.7,2.6c5.2,0.2,10.7,0.4,12.8,3.4
			c2.1,2.9,0.7,8.1-0.8,13.1c-1.3,4.6-2.6,9.4-1.4,13c1.1,3.5,4.7,6.3,8.6,9.3c4.2,3.3,8.5,6.7,8.5,10.5c0,3.8-4.3,7.2-8.5,10.5
			c-3.8,3-7.5,5.9-8.6,9.3c-1.2,3.6,0.2,8.4,1.4,13c1.4,5,2.9,10.2,0.8,13.1c-2.1,2.9-7.6,3.2-12.8,3.4c-4.8,0.2-9.7,0.4-12.7,2.6
			c-3,2.2-4.7,6.8-6.3,11.2c-1.8,5-3.7,10.1-7.2,11.2c-0.5,0.2-1,0.2-1.5,0.2c-3.1,0-6.9-2.5-10.5-5c-4-2.7-8.2-5.5-12.1-5.5
			c-3.9,0-8.1,2.8-12.1,5.5c-3.7,2.4-7.5,5-10.5,5c-0.5,0-1-0.1-1.5-0.2c-3.5-1.1-5.4-6.3-7.2-11.2c-1.6-4.4-3.3-9-6.3-11.2
			c-3-2.2-8-2.4-12.7-2.6c-5.2-0.2-10.7-0.4-12.8-3.4c-2.1-2.9-0.7-8.1,0.8-13.1c1.3-4.6,2.6-9.4,1.4-13c-1.1-3.5-4.7-6.3-8.6-9.3
			c-4.2-3.3-8.5-6.7-8.5-10.5c0-3.8,4.3-7.2,8.5-10.5c3.8-3,7.5-5.9,8.6-9.3c1.2-3.6-0.2-8.4-1.4-13c-1.4-5-2.9-10.2-0.8-13.1
			c2.1-2.9,7.6-3.2,12.8-3.4c4.8-0.2,9.7-0.4,12.7-2.6c3-2.2,4.7-6.8,6.3-11.2c1.8-5,3.7-10.1,7.2-11.2
			C37.5,422.5,38,422.4,38.5,422.4 M38.5,421.4c-0.6,0-1.2,0.1-1.8,0.3c-7.3,2.4-7.8,18.2-13.8,22.6c-6.1,4.5-21.3,0.1-25.7,6.2
			c-4.4,6.1,4.4,19.1,2.1,26.4c-2.3,7-17.2,12.4-17.2,20.1c0,7.8,14.9,13.1,17.2,20.1c2.4,7.3-6.5,20.3-2.1,26.4
			c4.5,6.1,19.6,1.7,25.7,6.2c6.1,4.4,6.6,20.2,13.8,22.6c0.6,0.2,1.2,0.3,1.8,0.3c6.8,0,15.5-10.4,22.6-10.4
			c7.1,0,15.8,10.4,22.6,10.4c0.6,0,1.2-0.1,1.8-0.3c7.3-2.4,7.8-18.2,13.8-22.6c6.1-4.5,21.3-0.1,25.7-6.2
			c4.4-6.1-4.4-19.1-2.1-26.4c2.3-7,17.2-12.4,17.2-20.1c0-7.8-14.9-13.1-17.2-20.1c-2.4-7.3,6.5-20.3,2.1-26.4
			c-4.5-6.1-19.6-1.7-25.7-6.2c-6.1-4.4-6.6-20.2-13.8-22.6c-0.6-0.2-1.2-0.3-1.8-0.3c-6.8,0-15.5,10.4-22.6,10.4
			C54,431.9,45.3,421.4,38.5,421.4L38.5,421.4z"/>
	</g>
	<g>
		<polygon class="st3" points="1585.2,606.3 1589.5,584.6 1655.5,527 1651.2,548.7 		"/>
	</g>
	<g>
		<polygon class="st3" points="68.7,588.3 60,587.1 29.1,564.2 37.8,565.4 		"/>
	</g>
	<g>
		<path class="st3" d="M45.4,680.4c1.1-14.4,4-29.7,6.8-44.4c7-36.6,14.3-74.4-6.3-103.8c2.8,0.2,10.4,0.7,17.3,0.7c0,0,0,0,0,0
			c5,0,8.7-0.3,10.8-0.8c0.9,0.2,3.7,6.3,2,74.8c-0.8,34.4-2.4,69.1-2.6,73.5H45.4z"/>
		<path class="st5" d="M73.9,532.7c0.5,0.8,1.8,4.9,2.1,24.9c0.2,12.6,0.1,29.7-0.5,50.9c-0.8,32.8-2.3,65.5-2.6,71.4h-27
			c1.1-14.3,4-29.3,6.8-43.8c7-36.3,14.2-73.9-5.8-103.3c3.4,0.2,10.1,0.6,16.3,0.6C68.1,533.5,71.7,533.2,73.9,532.7 M74,531.7
			c0,0-0.1,0-0.1,0c-2.4,0.6-6.4,0.8-10.7,0.8c-8.6,0-18.3-0.8-18.3-0.8c29.9,41.2,3.6,98.5,0,149.3h29
			C73.9,680.9,81,531.6,74,531.7L74,531.7z"/>
	</g>
	<g>
		<polygon class="st8" points="1841.4,105.3 1815,105.8 1813.3,75.9 1781.7,71.1 1800.6,45.3 1780.7,23 1799.7,4.7 1799.2,-21.7 
			1829.1,-23.4 1833.9,-55 1859.7,-36.1 1882,-56 1900.3,-36.9 1925,-38.8 1928.4,-7.6 1960,-2.8 1941.1,23 1961,45.3 1942,63.6 
			1942.5,90 1912.6,91.7 1907.8,123.3 1882,104.4 1859.7,124.3 		"/>
		<path class="st5" d="M1882-55.3l17.8,18.5l0.3,0.3l0.5,0l24-1.8l3.3,30.4l0.1,0.8l0.8,0.1l30.5,4.6l-18.3,24.8l-0.5,0.7l0.5,0.6
			l19.4,21.6l-18.5,17.8l-0.3,0.3l0,0.4l0.5,25.7l-29,1.6l-0.8,0l-0.1,0.8l-4.6,30.5l-24.8-18.3l-0.7-0.5l-0.6,0.5l-21.6,19.4
			l-17.8-18.5l-0.3-0.3l-0.4,0l-25.7,0.5l-1.6-29l0-0.8l-0.8-0.1l-30.5-4.6l18.3-24.8l0.5-0.7l-0.5-0.6L1781.4,23l18.5-17.8l0.3-0.3
			l0-0.4l-0.5-25.7l29-1.6l0.8,0l0.1-0.8l4.6-30.5l24.8,18.3l0.7,0.5l0.6-0.5L1882-55.3 M1882-56.7l-22.3,20l-26.2-19.2l-4.9,32.1
			l-29.9,1.6l0.5,26.7L1780,23l20,22.3l-19.2,26.2l32.1,4.9l1.6,29.9l26.7-0.5l18.5,19.2l22.3-20l26.2,19.2l4.9-32.1l29.9-1.6
			l-0.5-26.7l19.2-18.5l-20-22.3l19.2-26.2L1928.8-8l-3.4-31.3l-25,1.9L1882-56.7L1882-56.7z"/>
	</g>
	<rect id="tie" x="1" y="688" class="st9" width="1920" height="392"/>
	<g id="tiemerkintä">
		<g>
			<line class="st10" x1="3" y1="835" x2="40.5" y2="835.1"/>
			<line class="st11" x1="112.9" y1="835.2" x2="1849.3" y2="837.6"/>
			<line class="st10" x1="1885.5" y1="837.6" x2="1923" y2="837.7"/>
		</g>
	</g>
	<polygon class="st4" points="565.3,301.5 504.9,408 625.8,408 	"/>
	<polygon class="st4" points="565,275.4 520.4,361.5 609.7,361.5 	"/>
	<rect x="546.6" y="413.9" class="st6" width="36.7" height="93.1"/>
	<polyline class="st4" points="569.2,306.2 492.1,460.4 646.3,460.4 569.2,306.2 	"/>
	<polyline class="st4" points="1293.7,390.5 1249.1,476.7 1338.3,476.7 	"/>
	<rect x="1275.3" y="529.1" class="st6" width="36.7" height="93.1"/>
	<polyline class="st4" points="44.7,190.5 0.1,276.7 89.3,276.7 	"/>
	<rect x="26.3" y="329.1" class="st6" width="36.7" height="93.1"/>
	<polyline class="st4" points="-28.3,375.6 125.9,375.6 48.8,221.4 	"/>
	<polyline class="st4" points="1220.7,575.6 1374.9,575.6 1297.8,421.4 	"/>
	<g>
		<path class="st7" d="M259.6,409.6c-6.7,0-13.9-1.8-20.9-3.5c-7.3-1.8-14.7-3.6-21.9-3.6c-7.2,0-14.7,1.9-21.9,3.6
			c-7,1.7-14.2,3.5-20.9,3.5c-3.4,0-6.3-0.4-9.1-1.3c-9.6-3.1-16.8-11.7-23.7-19.9c-4.6-5.5-9.4-11.3-14.9-15.3
			c-5.6-4.1-12.6-6.9-19.4-9.6c-9.9-4-20.2-8.2-26-16.2c-5.8-8-6.6-18.9-7.3-29.6c-0.5-7.3-1.1-14.9-3.2-21.6
			c-2-6.3-6-12.6-9.8-18.6c-5.8-9.2-11.7-18.7-11.7-29c0-10.3,6-19.8,11.7-29c3.8-6,7.7-12.3,9.8-18.6c2.2-6.7,2.7-14.2,3.2-21.6
			c0.8-10.6,1.6-21.6,7.3-29.6c5.9-8.1,16.1-12.2,26-16.2c6.8-2.7,13.8-5.6,19.4-9.6c5.5-4,10.3-9.7,14.9-15.3
			c6.9-8.3,14-16.8,23.7-19.9c2.8-0.9,5.7-1.3,9.1-1.3c6.7,0,13.9,1.8,20.9,3.5c7.3,1.8,14.7,3.6,21.9,3.6c7.2,0,14.7-1.9,21.9-3.6
			c7-1.7,14.2-3.5,20.9-3.5c3.4,0,6.3,0.4,9.1,1.3c9.6,3.1,16.8,11.7,23.7,19.9c4.6,5.5,9.4,11.3,14.9,15.3
			c5.6,4.1,12.6,6.9,19.4,9.6c9.9,4,20.2,8.2,26,16.2c5.8,8,6.6,18.9,7.3,29.6c0.5,7.3,1.1,14.9,3.2,21.6c2,6.3,6,12.6,9.8,18.6
			c5.8,9.2,11.7,18.7,11.7,29c0,10.3-6,19.8-11.7,29c-3.8,6-7.7,12.3-9.8,18.6c-2.2,6.7-2.7,14.2-3.2,21.6
			c-0.8,10.6-1.6,21.6-7.3,29.6c-5.9,8.1-16.1,12.2-26,16.2c-6.8,2.7-13.8,5.6-19.4,9.6c-5.5,4-10.3,9.7-14.9,15.3
			c-6.9,8.3-14,16.8-23.7,19.9C265.9,409.2,263,409.6,259.6,409.6z"/>
		<path class="st5" d="M259.6,86.8v1h0c3.3,0,6.2,0.4,9,1.3c9.5,3.1,16.6,11.6,23.4,19.8c4.7,5.6,9.5,11.3,15,15.4
			c5.6,4.1,12.7,6.9,19.5,9.7c9.9,4,20,8.1,25.8,16c5.7,7.8,6.5,18.3,7.3,29.3c0.5,7.4,1.1,15,3.3,21.7c2.1,6.4,6,12.6,9.8,18.7
			c5.7,9.1,11.7,18.5,11.7,28.7c0,10.2-5.9,19.6-11.7,28.7c-3.8,6.1-7.8,12.3-9.8,18.7c-2.2,6.7-2.7,14.3-3.3,21.7
			c-0.8,11-1.5,21.5-7.3,29.3c-5.8,7.9-16,12.1-25.8,16c-6.8,2.8-13.8,5.6-19.5,9.7c-5.5,4-10.4,9.8-15,15.4
			c-6.9,8.2-14,16.7-23.4,19.8c-2.7,0.9-5.6,1.3-9,1.3c-6.6,0-13.5-1.7-20.8-3.5c-7.3-1.8-14.8-3.7-22.1-3.7
			c-7.2,0-14.8,1.9-22.1,3.7c-7.3,1.8-14.2,3.5-20.8,3.5c-3.3,0-6.2-0.4-9-1.3c-9.5-3.1-16.6-11.6-23.4-19.8
			c-4.7-5.6-9.5-11.3-15-15.4c-5.6-4.1-12.7-6.9-19.5-9.7c-9.9-4-20-8.1-25.8-16c-5.7-7.8-6.5-18.3-7.3-29.3
			c-0.5-7.4-1.1-15-3.3-21.7c-2.1-6.4-6-12.6-9.8-18.7c-5.7-9.1-11.7-18.5-11.7-28.7c0-10.2,5.9-19.6,11.7-28.7
			c3.8-6.1,7.8-12.3,9.8-18.7c2.2-6.7,2.7-14.3,3.3-21.7c0.8-11,1.5-21.5,7.3-29.3c5.8-7.9,16-12.1,25.8-16
			c6.8-2.8,13.8-5.6,19.5-9.7c5.5-4,10.4-9.8,15-15.4c6.9-8.2,14-16.7,23.4-19.8c2.7-0.9,5.6-1.3,9-1.3c6.6,0,13.5,1.7,20.8,3.5
			c7.3,1.8,14.8,3.7,22.1,3.7c7.2,0,14.8-1.9,22.1-3.7c7.3-1.8,14.2-3.5,20.8-3.5L259.6,86.8 M259.6,86.8c-13.6,0-28.7,7.2-42.8,7.2
			c-14.1,0-29.2-7.2-42.8-7.2c-3.2,0-6.3,0.4-9.3,1.4c-16.3,5.3-25.2,25.4-38.7,35.3c-13.7,10-35.5,12.3-45.5,26
			c-9.9,13.6-5.4,35-10.7,51.3c-5.1,15.7-21.5,30.3-21.5,47.8c0,17.4,16.4,32,21.5,47.8c5.3,16.3,0.8,37.7,10.7,51.3
			c10,13.7,31.8,16,45.5,26c13.6,9.9,22.4,30,38.7,35.3c3,1,6.1,1.4,9.3,1.4c13.6,0,28.7-7.2,42.8-7.2c14.1,0,29.2,7.2,42.8,7.2
			c3.2,0,6.3-0.4,9.3-1.4c16.3-5.3,25.2-25.4,38.7-35.3c13.7-10,35.5-12.3,45.5-26c9.9-13.6,5.4-35,10.7-51.3
			c5.1-15.7,21.5-30.3,21.5-47.8c0-17.4-16.4-32-21.5-47.8c-5.3-16.3-0.8-37.7-10.7-51.3c-10-13.7-31.8-16-45.5-26
			c-13.6-9.9-22.4-30-38.7-35.3C265.9,87.2,262.8,86.8,259.6,86.8L259.6,86.8z"/>
	</g>
</g>
</svg>
