<?xml version="1.0" encoding="utf-8"?>
<!-- Generator: Adobe Illustrator 23.0.6, SVG Export Plug-In . SVG Version: 6.00 Build 0)  -->
<svg version="1.1" id="Layer_1" xmlns="http://www.w3.org/2000/svg" xmlns:xlink="http://www.w3.org/1999/xlink" x="0px" y="0px"
	 viewBox="0 0 400 400" style="enable-background:new 0 0 400 400;" xml:space="preserve">
<style type="text/css">
	.st0{fill:#FFFFFF;}
</style>
<rect x="-1" y="-3" width="403" height="403"/>
<g>
	<path class="st0" d="M8,111.5l51.8-51.8c2.1-2.1,0.6-5.7-2.4-5.7h0c-0.9,0-1.7,0.4-2.4,1L9,101.1c-0.6,0.6-1,1.5-1,2.4V111.5z"/>
	<path class="st0" d="M13.7,85.9l26.2-26.2c2.1-2.1,0.6-5.7-2.4-5.7h0c-0.9,0-1.7,0.4-2.4,1L9,81.2c-0.6,0.6-1,1.5-1,2.4v0
		C8,86.5,11.6,88,13.7,85.9z"/>
	<polygon class="st0" points="8,191.1 58,141 58,134.2 60.1,139 97.2,101.8 94.3,95.3 8,181.6 	"/>
	<path class="st0" d="M78.6,60.8L78.6,60.8c-1.6-3.3-6-4.1-8.6-1.4L8,121.9v9.5L78.6,60.8z"/>
	<path class="st0" d="M169.3,139.6v9.5l49.2-49.2c0.6-0.6,0.9-1.3,0.9-2.1v-1.1c0-2.6-3.2-4-5.1-2.1L169.3,139.6z"/>
	<path class="st0" d="M169.3,239.1v9.5l49.2-49.2c0.6-0.6,0.9-1.3,0.9-2.1v-1.1c0-2.6-3.2-4-5.1-2.1L169.3,239.1z"/>
	<path class="st0" d="M169.3,219.2v9.5l49.2-49.2c0.6-0.6,0.9-1.3,0.9-2.1v-1.1c0-2.6-3.2-4-5.1-2.1L169.3,219.2z"/>
	<path class="st0" d="M169.3,119.7v9.5L218.5,80c0.6-0.6,0.9-1.3,0.9-2.1v-1.1c0-2.6-3.2-4-5.1-2.1L169.3,119.7z"/>
	<path class="st0" d="M169.3,109.3l49.2-49.2c0.6-0.6,0.9-1.3,0.9-2.1V57c0-1.6-1.3-3-3-3l0,0c-0.8,0-1.5,0.3-2.1,0.9l-45,45V109.3z
		"/>
	<polygon class="st0" points="84.8,74.5 81.8,68 8,141.8 8,151.3 	"/>
	<path class="st0" d="M169.3,199.3v9.5l49.2-49.2c0.6-0.6,0.9-1.3,0.9-2.1v-1.1c0-2.6-3.2-4-5.1-2.1L169.3,199.3z"/>
	<polygon class="st0" points="58,339.9 58,330.5 42.5,346 52,346 	"/>
	<polygon class="st0" points="58,320 58,310.6 22.6,346 32.1,346 	"/>
	<path class="st0" d="M219.3,257v-1.1c0-2.6-3.2-4-5.1-2.1l-71.3,71.3l2.9,6.5l72.6-72.6C219,258.5,219.3,257.7,219.3,257z"/>
	<path class="st0" d="M219.3,276.8v-1.1c0-2.6-3.2-4-5.1-2.1l-65.2,65.2l2.9,6.5l66.4-66.4C219,278.4,219.3,277.6,219.3,276.8z"/>
	<polygon class="st0" points="58,180.8 58,171.3 8,221.4 8,230.9 	"/>
	<polygon class="st0" points="58,200.7 58,191.2 8,241.3 8,250.7 	"/>
	<polygon class="st0" points="91,88.2 88,81.7 8,161.7 8,171.2 	"/>
	<polygon class="st0" points="58,220.6 58,211.1 8,261.2 8,270.6 	"/>
	<polygon class="st0" points="58,290.7 8,340.7 8,346 12.2,346 58,300.1 	"/>
	<path class="st0" d="M219.3,237.1V236c0-2.6-3.2-4-5.1-2.1l-77.5,77.5l2.9,6.5l78.8-78.8C219,238.6,219.3,237.9,219.3,237.1z"/>
	<polygon class="st0" points="8,290.5 58,240.5 58,231 8,281 	"/>
	<polygon class="st0" points="8,310.4 58,260.4 58,255.3 58,250.9 8,300.9 	"/>
	<polygon class="st0" points="106.7,122.7 69.2,160.2 72,166.8 109.7,129.2 	"/>
	<path class="st0" d="M169.3,69.5"/>
	<polygon class="st0" points="100.5,109 63.2,146.3 66.1,152.9 103.4,115.5 	"/>
	<path class="st0" d="M192.1,345.1l26.4-26.4c0.6-0.6,0.9-1.3,0.9-2.1v-1.1c0-2.6-3.2-4-5.1-2.1l-27.5,27.5
		c-1.9,1.9-0.5,5.1,2.1,5.1h1.1C190.8,346,191.5,345.7,192.1,345.1z"/>
	<path class="st0" d="M171.3,346l47.2-47.2c0.6-0.6,0.9-1.3,0.9-2.1v-1.1c0-2.6-3.2-4-5.1-2.1L161.8,346H171.3z"/>
	<path class="st0" d="M194.4,54.9L169.3,80v9.5l30.4-30.4c1.9-1.9,0.5-5.1-2.1-5.1h-1.1C195.7,54,195,54.3,194.4,54.9z"/>
	<path class="st0" d="M133.6,304.2l84.9-84.9c0.6-0.6,0.9-1.3,0.9-2.1v-1.1c0-2.6-3.2-4-5.1-2.1l-45,45v4.6l-1.3-3.2l-37.3,37.3
		L133.6,304.2z"/>
	<polygon class="st0" points="8,330.3 58,280.3 58,270.8 8,320.8 	"/>
	<polygon class="st0" points="127.4,290.5 164.9,252.9 162.2,246.2 124.5,283.9 	"/>
	<polygon class="st0" points="8,211 58,160.9 58,151.4 8,201.5 	"/>
	<polygon class="st0" points="102.8,235.5 140.7,197.5 137.8,191 99.8,229 	"/>
	<polygon class="st0" points="96.6,221.8 134.5,183.9 131.6,177.4 93.7,215.3 	"/>
	<polygon class="st0" points="90.4,208.1 128.3,170.2 125.4,163.7 87.5,201.5 	"/>
	<polygon class="st0" points="84.3,194.4 122.1,156.5 119.1,150 81.3,187.8 	"/>
	<polygon class="st0" points="78.1,180.6 115.9,142.9 112.9,136.3 75.2,174.1 	"/>
	<polygon class="st0" points="115.1,263 153.2,224.9 150.2,218.4 112.1,256.5 	"/>
	<path class="st0" d="M214.3,134.4l-45,45v9.5l49.2-49.2c0.6-0.6,0.9-1.3,0.9-2.1v-1.1C219.3,133.9,216.2,132.6,214.3,134.4z"/>
	<polygon class="st0" points="121.2,276.7 159.1,238.8 156.4,232.1 118.3,270.2 	"/>
	<polygon class="st0" points="108.9,249.3 147,211.2 144,204.7 106,242.7 	"/>
	<path class="st0" d="M214.3,114.5l-45,45v9.5l49.2-49.2c0.6-0.6,0.9-1.3,0.9-2.1v-1.1C219.3,114,216.2,112.7,214.3,114.5z"/>
</g>
<g>
	<g>
		<path class="st0" d="M338.4,4.3c-0.5,0-1,0-1.5,0c-4.2,0-8.1,0.7-11.8,2.2l-17.4,17.1c0,0.1-0.1,0.2-0.1,0.2
			c-1.6,3.9-2.4,8-2.4,12.4c0,0.2,0,0.5,0,0.7L338.4,4.3z M228.1,91.6c-5,0-9,4-9,9v1.8l11.1-10.9H228.1z M249.5,91.6h-11.1
			l-19.3,19v9.9c0,0.3,0,0.6,0,0.9L249.5,91.6z M324.4,65.4c2.4,1,5,1.8,7.6,2.1l36.5-35.9c-0.4-2.7-1.1-5.4-2.1-7.9
			c-0.1-0.2-0.2-0.4-0.3-0.7L323.6,65C323.8,65.1,324.1,65.2,324.4,65.4z M228.1,129.5h2.1l38.6-37.9h-11.1l-36,35.3
			C223.4,128.5,225.7,129.5,228.1,129.5z M340.1,67.7c3.3-0.3,6.5-1.1,9.5-2.4c3.9-1.7,7.3-3.9,10.2-6.8c2.9-2.9,5.1-6.2,6.7-10.1
			c1.2-2.8,1.9-5.8,2.2-8.9L340.1,67.7z M314.3,58.6c1.2,1.2,2.6,2.4,4,3.4l44.9-44.1c-1-1.5-2.2-2.9-3.5-4.2
			c-0.5-0.5-1.1-1.1-1.7-1.6l-45.5,44.7C313.2,57.4,313.7,58,314.3,58.6z M307.6,48.5c0.5,1.2,1,2.3,1.6,3.4l44.1-43.3
			c-1.2-0.7-2.4-1.3-3.7-1.9c-1.3-0.6-2.6-1-4-1.4l-39.4,38.7C306.5,45.6,307,47.1,307.6,48.5z M242.1,334.8l-29.4,28.8
			c0.6,2.6,2.4,4.9,4.9,6.1L251,337C248,336.4,245,335.7,242.1,334.8z M268.9,129.5l38.6-37.9h-11.1l-38.6,37.9H268.9z M309.1,372.5
			c1.2-0.4,2.4-0.8,3.6-1.2l46.2-45.4c1.7-4.6,3-9.5,4-14.7l-65.5,64.3C301.5,374.7,305.4,373.7,309.1,372.5z M227.7,330l-15.2,14.9
			v10.9l23.3-22.9C233,332,230.3,331,227.7,330z M296.5,129.5h9.8c0.4,0,0.8,0,1.1,0.1l38.7-38h-11.1L296.5,129.5z M315.4,216.8
			l49.5-48.6v-10.9l-49.5,48.6V216.8z M315.4,178.8l49.5-48.6v-10.9l-49.5,48.6V178.8z M277.2,129.5h11.1l38.6-37.9h-11.1
			L277.2,129.5z M258.1,338.2l-34.2,33.6c2.7,0.8,5.7,1.5,8.8,2.2l35.6-35C264.9,338.9,261.5,338.6,258.1,338.2z M212.5,336.8
			l8.6-8.4C216.7,328.5,212.8,332,212.5,336.8z M276.6,338.9l-37.2,36.5c3.1,0.6,6.3,1.1,9.6,1.4l41.7-41
			C286.6,337.5,281.9,338.5,276.6,338.9z M287.6,377l76.6-75.2c0.4-3.7,0.6-7.5,0.6-11.5l-89.2,87.6
			C279.7,377.8,283.7,377.5,287.6,377z M339,356c4.7-4.1,8.7-8.9,12.2-14.3L329,363.5C332.6,361.2,335.9,358.7,339,356z
			 M315.4,273.7l49.5-48.6v-10.9l-49.5,48.6V273.7z M267.3,378l97.6-95.8v-10.9L256.7,377.5C260.1,377.8,263.6,377.9,267.3,378z
			 M315.4,148.9v10.9l49.5-48.6v-10.6c0-0.1,0-0.2,0-0.3L315.4,148.9z M310.5,316.5l54.4-53.4v-10.9l-50.3,49.4
			C313.8,307.2,312.4,312.2,310.5,316.5z M315.4,197.8l49.5-48.6v-10.9l-49.5,48.6V197.8z M362.5,94.6c-1.7-1.8-4-3-6.7-3h-1.4
			L313,132.4c1.5,1.6,2.5,3.8,2.5,6.2v2.3L362.5,94.6z M249.6,129.5l38.6-37.9h-11.1l-38.6,37.9H249.6z M315.4,235.7l49.5-48.6
			v-10.9l-49.5,48.6V235.7z M315.4,288.8c0,1.3,0,2.7-0.1,3.9l49.5-48.6v-10.9l-49.5,48.6V288.8z M315.4,254.7l49.5-48.6v-10.9
			l-49.5,48.6V254.7z"/>
	</g>
</g>
</svg>
