<?xml version="1.0" encoding="utf-8"?>
<!-- Generator: Adobe Illustrator 23.0.6, SVG Export Plug-In . SVG Version: 6.00 Build 0)  -->
<svg version="1.1" id="Layer_1" xmlns="http://www.w3.org/2000/svg" xmlns:xlink="http://www.w3.org/1999/xlink" x="0px" y="0px"
	 viewBox="0 0 698 698" style="enable-background:new 0 0 698 698;" xml:space="preserve">
<style type="text/css">
	.st0{fill:#8E8E8E;}
</style>
<path class="st0" d="M335.7,0h10c192.7,0,349,156.3,349,349v0c0,192.7-156.3,349-349,349h-10c-192.7,0-349-156.3-349-349v0
	C-13.3,156.3,142.9,0,335.7,0z"/>
<g>
	<path d="M227.9,42.8L390.6,5c6.6-1.5,8-10.3,2.2-13.9l0,0c-1.7-1.1-3.8-1.3-5.9-1L242.3,23.9c-1.9,0.4-3.7,1.7-4.8,3.4L227.9,42.8z
		"/>
	<path d="M269.8,0.2L352.1-19c6.6-1.5,8-10.3,2.2-13.9l0,0c-1.7-1.1-3.8-1.3-5.9-1l-82.1,19.2c-1.9,0.4-3.7,1.7-4.8,3.4l0,0
		C258-5.6,263.2,1.7,269.8,0.2z"/>
	<polygon points="131.9,196.9 289.1,160.2 297.3,147.1 295.5,158.9 412.2,131.6 414.4,115.5 143.3,178.5 	"/>
	<path d="M425.6,29.8L425.6,29.8c0.9-8.3-6.7-15.2-15-13.1L215.3,63l-11.5,18.4L425.6,29.8z"/>
	<path d="M506.2,291.7l-11.5,18.4l154.5-35.9c1.9-0.4,3.3-1.4,4.3-3l1.3-2.1c3.1-5-1.4-11.6-7.3-10.2L506.2,291.7z"/>
	<path d="M386.2,484.3l-11.5,18.4l154.5-35.9c1.9-0.4,3.3-1.4,4.3-3l1.3-2.1c3.1-5-1.4-11.6-7.3-10.2L386.2,484.3z"/>
	<path d="M410.2,445.8l-11.5,18.4l154.5-35.9c1.9-0.4,3.3-1.4,4.3-3l1.3-2.1c3.1-5-1.4-11.6-7.3-10.2L410.2,445.8z"/>
	<path d="M530.2,253.2l-11.5,18.4l154.5-35.9c1.9-0.4,3.3-1.4,4.3-3l1.3-2.1c3.1-5-1.4-11.6-7.3-10.2L530.2,253.2z"/>
	<path d="M542.7,233.1l154.5-35.9c1.9-0.4,3.3-1.4,4.3-3l1.2-1.9c1.9-3.1,1.1-7.4-2.2-9.4l0,0c-1.5-1-3.3-1.2-5.1-0.8L554,214.9
		L542.7,233.1L542.7,233.1z"/>
	<polygon points="421.1,63.8 423.2,47.6 191.3,101.5 179.9,119.9 	"/>
	<path d="M434.2,407.3l-11.5,18.4l154.5-35.9c1.9-0.4,3.3-1.4,4.3-3l1.3-2.1c3.1-5-1.4-11.6-7.3-10.2L434.2,407.3z"/>
	<polygon points="49.2,545.2 60.6,527 11.9,538.3 30.3,549.7 	"/>
	<polygon points="73.2,506.7 84.6,488.5 -26.6,514.3 -8.3,525.8 	"/>
	<path d="M461.4,579.2l1.3-2.1c3.1-5-1.4-11.6-7.3-10.2l-224,52l-2.2,16.1l228.1-53C459,581.8,460.5,580.6,461.4,579.2z"/>
	<path d="M437.5,617.6l1.3-2.1c3.1-5-1.4-11.6-7.3-10.2l-204.8,47.6l-2.2,16.1L433,620.4C435,620.3,436.5,619.1,437.5,617.6z"/>
	<polygon points="241.1,237.3 252.5,218.9 95.4,255.5 83.9,273.9 	"/>
	<polygon points="217.1,275.8 228.5,257.4 71.4,294.1 60,312.2 	"/>
	<polygon points="416.6,97.8 418.6,81.6 167.3,140 155.9,158.4 	"/>
	<polygon points="193.1,314.3 204.5,295.9 47.4,332.6 36,350.8 	"/>
	<polygon points="108.6,450 -48.5,486.4 -54.9,496.7 -46.8,501.8 97.2,468.1 	"/>
	<path d="M485.4,540.7l1.3-2.1c3.1-5-1.4-11.6-7.3-10.2l-243.4,56.5l-2.2,16.1l247.5-57.5C483,543.3,484.4,542.3,485.4,540.7z"/>
	<polygon points="12,389.3 169.1,352.8 180.5,334.4 23.5,370.9 	"/>
	<polygon points="-12,427.8 145.1,391.3 151.2,381.4 156.6,372.9 -0.5,409.4 	"/>
	<polygon points="405.4,183.5 287.6,210.9 285.1,227 403.4,199.7 	"/>
	<path d="M590.7,156"/>
	<polygon points="409.9,149.5 292.7,176.7 290.4,193 407.7,165.6 	"/>
	<path d="M302.5,716.9l82.9-19.3c1.9-0.4,3.3-1.4,4.3-3l1.3-2.1c3.1-5-1.4-11.6-7.3-10.2l-86.4,20.1c-6,1.4-7.1,9.3-2.1,12.4
		l2.1,1.3C298.9,717.1,300.6,717.4,302.5,716.9z"/>
	<path d="M261.2,693.6l148.3-34.4c1.9-0.4,3.3-1.4,4.3-3l1.3-2.1c3.1-5-1.4-11.6-7.3-10.2l-164.9,38.3L261.2,693.6z"/>
	<path d="M656.9,158.1L578,176.4l-11.5,18.4l95.5-22.2c6-1.4,7.1-9.3,2.1-12.4l-2.1-1.3C660.5,157.9,658.8,157.6,656.9,158.1z"/>
	<path d="M238.6,567.2l266.7-61.9c1.9-0.4,3.3-1.4,4.3-3l1.3-2.1c3.1-5-1.4-11.6-7.3-10.2l-141.4,32.8l-5.5,8.9l1.3-7.8l-117.2,27.2
		L238.6,567.2z"/>
	<polygon points="-36,466.3 121.1,429.8 132.6,411.4 -24.5,447.9 	"/>
	<polygon points="243.1,533.3 361,505.7 363.9,489.5 245.5,517 	"/>
	<polygon points="107.9,235.4 265.1,198.7 276.5,180.3 119.3,217 	"/>
	<polygon points="261.8,397.1 381,369.3 383.2,353.2 263.9,380.9 	"/>
	<polygon points="266.3,363.1 385.4,335.5 387.6,319.4 268.6,347.1 	"/>
	<polygon points="270.9,329.2 389.9,301.5 392.1,285.4 273.2,312.9 	"/>
	<polygon points="275.6,295.3 394.4,267.5 396.5,251.3 277.7,278.9 	"/>
	<polygon points="280.2,261.1 398.8,233.7 401,217.3 282.4,245 	"/>
	<polygon points="252.5,465.2 372.2,437.4 374.2,421.2 254.5,449 	"/>
	<path d="M599.5,335.9l-141.4,32.8l-11.5,18.4l154.5-35.9c1.9-0.4,3.3-1.4,4.3-3l1.3-2.1C609.8,341,605.4,334.7,599.5,335.9z"/>
	<polygon points="247.8,499.1 366.8,471.4 369.7,455.2 250,483 	"/>
	<polygon points="257,431.2 376.7,403.4 378.7,387.2 259.3,414.9 	"/>
	<path d="M623.5,297.4l-141.4,32.8l-11.5,18.4l154.5-35.9c1.9-0.4,3.3-1.4,4.3-3l1.3-2.1C633.8,302.5,629.4,296.2,623.5,297.4z"/>
</g>
</svg>
