<?xml version="1.0" encoding="utf-8"?>
<!-- Generator: Adobe Illustrator 23.0.6, SVG Export Plug-In . SVG Version: 6.00 Build 0)  -->
<svg version="1.1" id="Layer_1" xmlns="http://www.w3.org/2000/svg" xmlns:xlink="http://www.w3.org/1999/xlink" x="0px" y="0px"
	 viewBox="0 0 700 124.9" style="enable-background:new 0 0 700 124.9;" xml:space="preserve">
<g>
	<path d="M57.5,33.5v57.8H47l-21-48v44.1c0,1.1-0.4,2-1.1,2.8c-0.8,0.8-1.7,1.1-2.8,1.1c-1.1,0-2-0.4-2.8-1.1
		c-0.8-0.8-1.1-1.7-1.1-2.8V29.5h10.3l21.1,47.9V33.5c0-1.1,0.4-2,1.2-2.8c0.8-0.8,1.7-1.2,2.8-1.2c1.1,0,2,0.4,2.8,1.2
		C57.1,31.4,57.5,32.4,57.5,33.5z"/>
	<path d="M115,60.5V77c0,3.5-1.6,6.7-5,9.7c-3.3,3-6.7,4.5-10.2,4.5h-9.2c-3.6,0-7-1.5-10.2-4.5c-3.3-3-4.9-6.2-4.9-9.6V60.5
		c0-3.4,1.6-6.6,4.8-9.6c3.2-3,6.6-4.5,10.3-4.5h9.2c3.5-0.1,6.9,1.4,10.2,4.4C113.4,53.7,115,56.9,115,60.5z M83.5,60.8v15.8
		c0,1.4,0.5,2.6,1.5,3.4l2.9,2.5c0.7,0.6,1.6,0.8,2.7,0.8h9.1c1.3,0,2.5-0.5,3.6-1.4l2.4-2.1c1-0.7,1.4-1.8,1.4-3.1V60.9
		c0-1.5-0.5-2.7-1.4-3.4l-2.7-2.2c-0.9-0.8-2-1.2-3.3-1.2h-8.1c-1.8,0-3.1,0.4-4.1,1.3L85,57.7C84,58.5,83.5,59.5,83.5,60.8z"/>
	<path d="M144.9,63.1h15.3c0.8,0,2,0.2,3.6,0.6l-0.1-5.5c0-1.1-0.4-2-1.1-2.8c-0.8-0.8-1.7-1.1-2.8-1.1h-14.9c-1.1,0-2-0.4-2.7-1.2
		c-0.8-0.8-1.2-1.7-1.2-2.7c0-1.1,0.4-2,1.1-2.8c0.8-0.8,1.7-1.1,2.8-1.1h14.9c3.2,0,6,1.1,8.3,3.4c2.3,2.3,3.5,5,3.6,8.3l1,29.2
		c0,1.1-0.4,2-1.2,2.8c-0.8,0.8-1.7,1.1-2.7,1.1c-1.1,0-2.1-0.4-2.8-1.1c-0.8-0.8-1.2-1.7-1.2-2.8l-6.6,3.9h-13.2
		c-3.3,0-6.1-1.1-8.4-3.4c-2.3-2.3-3.4-5.1-3.4-8.4v-4.6c0-3.3,1.2-6,3.5-8.3C138.8,64.3,141.6,63.1,144.9,63.1z M164.4,78.3
		l-0.2-3.3c0-1.1-0.4-2-1.2-2.8c-0.7-0.7-1.7-1.1-2.7-1.1h-15.4c-1.1,0-2,0.4-2.8,1.1c-0.8,0.8-1.1,1.7-1.1,2.8v4.4
		c0,1.1,0.4,2,1.2,2.7c0.8,0.8,1.7,1.2,2.7,1.2h11L164.4,78.3z"/>
	<path d="M252.1,79.5V67.1c0-1.1,0.4-2,1.1-2.8c0.8-0.8,1.7-1.1,2.8-1.1c1.1,0,2,0.4,2.8,1.1c0.8,0.8,1.1,1.7,1.1,2.8v12.5
		c0,1.1,0.4,2,1.2,2.7c0.8,0.7,1.7,1.1,2.8,1.1h7.9c1.1,0,2-0.4,2.8-1.1c0.8-0.8,1.2-1.7,1.2-2.8V33.4c0-1.1,0.4-2,1.1-2.8
		c0.7-0.8,1.6-1.1,2.7-1.1c1.1,0,2,0.4,2.8,1.3c0.8,0.8,1.2,1.8,1.2,2.8v45.9c0,3.3-1.2,6.1-3.6,8.4c-2.4,2.3-5.1,3.4-8.2,3.4h-7.9
		c-3.3,0-6-1.2-8.3-3.5C253.2,85.5,252.1,82.7,252.1,79.5z"/>
	<path d="M324.3,83.4l13.1-8.4V50.3c0-1.1,0.4-2,1.1-2.8c0.8-0.8,1.7-1.2,2.8-1.2c1.1,0,2,0.4,2.8,1.2c0.8,0.8,1.1,1.7,1.1,2.8v37.1
		c0,1.1-0.4,2-1.2,2.7c-0.8,0.8-1.7,1.2-2.7,1.2c-1.1,0-2-0.4-2.7-1.2c-0.8-0.8-1.2-1.7-1.2-2.7v-3.1l-6.8,4.4
		c-2.7,1.7-5.4,2.6-8.1,2.6H319c-3.2,0-5.9-1.1-8.2-3.3s-3.5-5-3.7-8.2l-1.2-29.4c-0.1-1,0.3-1.9,1.1-2.7c0.8-0.8,1.7-1.2,2.8-1.2
		c1.1,0,2,0.4,2.7,1.2c0.8,0.8,1.2,1.7,1.2,2.7l1.1,28.9c0.1,2.8,1.7,4.2,4.8,4.2H324.3z"/>
	<path d="M394.8,91.3h-23.6c-1.1,0-2-0.4-2.8-1.2c-0.8-0.8-1.1-1.7-1.1-2.8c0-1.1,0.4-2,1.1-2.7c0.8-0.8,1.7-1.2,2.8-1.2h7.8V37.3
		h-7.9c-1.1,0-2-0.4-2.8-1.1c-0.8-0.8-1.1-1.7-1.1-2.8c0-1.1,0.4-2,1.1-2.8c0.8-0.8,1.7-1.1,2.8-1.1H383c1.1,0,2,0.4,2.7,1.2
		c0.8,0.8,1.2,1.7,1.2,2.7v50h7.9c1.1,0,2,0.4,2.7,1.2c0.8,0.8,1.2,1.7,1.2,2.7c0,1.1-0.4,2-1.1,2.8
		C396.8,90.9,395.9,91.3,394.8,91.3z"/>
	<path d="M420.8,87.4V33.5c0-1.1,0.4-2.1,1.1-2.8c0.8-0.8,1.7-1.2,2.8-1.2c1.1,0,2,0.4,2.8,1.2c0.8,0.8,1.1,1.7,1.1,2.8v31.9
		l21-17.9c0.9-0.7,1.9-1.1,2.9-1.1c1.1,0,2,0.4,2.8,1.2c0.7,0.8,1.1,1.7,1.1,2.8c0,1.1-0.4,2.1-1.2,2.7L438.9,67l20.2,17.7
		c0.8,0.7,1.2,1.5,1.2,2.6c0,1-0.4,1.9-1.1,2.8c-0.7,0.8-1.7,1.2-2.7,1.2c-1.1,0-2-0.4-2.9-1.1l-20.8-18.1l-4.1,3.5v11.8
		c0,1.1-0.4,2-1.1,2.8c-0.8,0.8-1.7,1.1-2.8,1.1c-1.1,0-2-0.4-2.8-1.1C421.2,89.4,420.8,88.5,420.8,87.4z"/>
	<path d="M496.9,83.4L510,75V50.3c0-1.1,0.4-2,1.1-2.8c0.8-0.8,1.7-1.2,2.8-1.2c1.1,0,2,0.4,2.8,1.2c0.8,0.8,1.1,1.7,1.1,2.8v37.1
		c0,1.1-0.4,2-1.2,2.7c-0.8,0.8-1.7,1.2-2.7,1.2c-1.1,0-2-0.4-2.7-1.2c-0.8-0.8-1.2-1.7-1.2-2.7v-3.1l-6.8,4.4
		c-2.7,1.7-5.4,2.6-8.1,2.6h-3.6c-3.2,0-5.9-1.1-8.2-3.3s-3.5-5-3.7-8.2l-1.2-29.4c-0.1-1,0.3-1.9,1.1-2.7c0.8-0.8,1.7-1.2,2.8-1.2
		c1.1,0,2,0.4,2.7,1.2c0.8,0.8,1.2,1.7,1.2,2.7l1.1,28.9c0.1,2.8,1.7,4.2,4.8,4.2H496.9z"/>
	<path d="M554.3,55.5l-10.7,6.9v25c0,1.1-0.4,2-1.2,2.7c-0.8,0.8-1.7,1.2-2.7,1.2s-2-0.4-2.7-1.2c-0.8-0.8-1.2-1.7-1.2-2.7V50.3
		c0-1.1,0.4-2,1.1-2.8c0.8-0.8,1.7-1.2,2.8-1.2c1.1,0,2,0.4,2.7,1.2c0.8,0.8,1.2,1.7,1.2,2.8v2.6l7.1-4.3c2.4-1.5,5.1-2.3,8.1-2.3
		h3.6c3.1,0,5.8,1.1,8.1,3.3c2.3,2.2,3.5,4.9,3.6,8.1l1.1,29.6c0,1.1-0.3,2-1.1,2.7c-0.8,0.8-1.7,1.2-2.8,1.2c-1,0-1.9-0.3-2.7-1
		c-0.8-0.7-1.2-1.7-1.2-2.9l-1.2-29.2c-0.1-2.7-1.5-4.1-4.3-4.1h-3.8C556.9,54.1,555.7,54.6,554.3,55.5z"/>
	<path d="M632.7,61.1v9.4c0,1.1-0.4,2-1.2,2.7c-0.8,0.8-1.7,1.2-2.7,1.2h-27.6v2.3c0,1.3,0.6,2.5,1.7,3.4l2.3,1.9
		c1.2,1,2.4,1.4,3.5,1.4h20.1c1.1,0,2,0.4,2.7,1.1c0.8,0.8,1.2,1.7,1.2,2.8c0,1.1-0.4,2-1.2,2.7c-0.8,0.8-1.7,1.2-2.7,1.2h-20.6
		c-1.4,0-2.8-0.3-4.3-0.9c-1.5-0.6-2.6-1.2-3.3-1.8l-3.5-3.1c-1.1-0.9-2-2.1-2.7-3.6c-0.7-1.5-1.1-3-1.1-4.3V59.8
		c0-1,0.4-2.4,1.2-4.1c0.8-1.7,1.8-3.1,3-4l3.3-2.6c2.1-1.7,4.5-2.6,7.1-2.6h11c2.8,0,5.4,1.1,7.8,3.4l2.9,2.8
		C631.6,54.5,632.7,57.4,632.7,61.1z M601.2,60.5v6H625v-5.4c0-1.5-0.5-2.6-1.4-3.3l-2.3-2c-1.2-1-2.2-1.4-3.2-1.4h-9.8
		c-1.2,0-2.3,0.4-3.3,1.3l-2.3,1.9C601.7,58.3,601.2,59.3,601.2,60.5z"/>
	<path d="M669.3,55.5l-10.7,6.9v25c0,1.1-0.4,2-1.2,2.7c-0.8,0.8-1.7,1.2-2.7,1.2c-1.1,0-2-0.4-2.7-1.2c-0.8-0.8-1.2-1.7-1.2-2.7
		V50.3c0-1.1,0.4-2,1.1-2.8c0.8-0.8,1.7-1.2,2.8-1.2c1.1,0,2,0.4,2.7,1.2c0.8,0.8,1.2,1.7,1.2,2.8v2.6l7.1-4.3
		c2.4-1.5,5.1-2.3,8.1-2.3h3.6c3.1,0,5.8,1.1,8.1,3.3c2.3,2.2,3.5,4.9,3.6,8.1l1.1,29.6c0,1.1-0.3,2-1.1,2.7
		c-0.8,0.8-1.7,1.2-2.8,1.2c-1,0-1.9-0.3-2.7-1c-0.8-0.7-1.2-1.7-1.2-2.9l-1.2-29.2c-0.1-2.7-1.5-4.1-4.3-4.1h-3.8
		C672,54.1,670.7,54.6,669.3,55.5z"/>
</g>
</svg>
