<?xml version="1.0" encoding="utf-8"?>
<!-- Generator: Adobe Illustrator 23.0.6, SVG Export Plug-In . SVG Version: 6.00 Build 0)  -->
<svg version="1.1" id="Layer_1" xmlns="http://www.w3.org/2000/svg" xmlns:xlink="http://www.w3.org/1999/xlink" x="0px" y="0px"
	 viewBox="0 0 400 400" style="enable-background:new 0 0 400 400;" xml:space="preserve">
<style type="text/css">
	.st0{fill:#E2A440;}
	.st1{fill:none;stroke:#000000;stroke-miterlimit:10;}
</style>
<g>
	<path class="st0" d="M186,295.5c-28.9,0-52.5-23.6-52.5-52.5c0-23,15.4-43.7,37.4-50.3l1-0.3l-0.9-0.6
		c-7.8-5.2-12.5-13.9-12.5-23.3c0-15.4,12.6-28,28-28s28,12.6,28,28c0,9.5-4.8,18.3-12.8,23.5l-0.9,0.6l1,0.3
		c22,6.9,36.7,27,36.7,50.1C238.5,271.9,214.9,295.5,186,295.5z"/>
	<path d="M186.5,141c15.2,0,27.5,12.3,27.5,27.5c0,9.4-4.7,18-12.6,23.1l-1.8,1.2l2,0.6c10.3,3.3,19.6,9.8,26.1,18.6
		c6.7,9,10.3,19.8,10.3,31c0,28.7-23.3,52-52,52s-52-23.3-52-52c0-11.4,3.6-22.2,10.5-31.3c6.6-8.8,16.1-15.3,26.5-18.5l2-0.6
		l-1.8-1.2c-7.7-5.1-12.3-13.7-12.3-22.9C159,153.3,171.3,141,186.5,141 M186.5,140c-15.7,0-28.5,12.8-28.5,28.5
		c0,9.9,5.1,18.6,12.7,23.7C148.9,198.8,133,219,133,243c0,29.3,23.7,53,53,53s53-23.7,53-53c0-23.7-15.6-43.8-37.1-50.6
		c7.9-5.1,13.1-13.9,13.1-23.9C215,152.8,202.2,140,186.5,140L186.5,140z"/>
</g>
<g>
	<circle cx="177" cy="164" r="3.5"/>
	<path d="M177,161c1.7,0,3,1.3,3,3s-1.3,3-3,3s-3-1.3-3-3S175.3,161,177,161 M177,160c-2.2,0-4,1.8-4,4s1.8,4,4,4s4-1.8,4-4
		S179.2,160,177,160L177,160z"/>
</g>
<g>
	<circle cx="196" cy="164" r="3.5"/>
	<path d="M196,161c1.7,0,3,1.3,3,3s-1.3,3-3,3s-3-1.3-3-3S194.3,161,196,161 M196,160c-2.2,0-4,1.8-4,4s1.8,4,4,4s4-1.8,4-4
		S198.2,160,196,160L196,160z"/>
</g>
<path class="st1" d="M170,177c-0.2,2.9,1.6,5.8,4.6,7.5c2.3,1.3,5.2,1.8,8.1,1.9c3.9,0.1,7.9-0.5,11.2-2.1c3.3-1.6,6-4.3,6.7-7.4"/>
</svg>
