<?xml version="1.0" encoding="utf-8"?>
<!-- Generator: Adobe Illustrator 23.0.6, SVG Export Plug-In . SVG Version: 6.00 Build 0)  -->
<svg version="1.1" id="Layer_1" xmlns="http://www.w3.org/2000/svg" xmlns:xlink="http://www.w3.org/1999/xlink" x="0px" y="0px"
	 viewBox="0 0 1080 650" style="enable-background:new 0 0 1080 650;" xml:space="preserve">
<style type="text/css">
	.st0{fill:#1B1E1B;}
	.st1{fill:none;stroke:#FFFFFF;stroke-miterlimit:10;}
	.st2{fill:none;stroke:#F9F9F9;stroke-width:6;stroke-miterlimit:10;stroke-dasharray:75,72;}
	.st3{fill:none;}
	.st4{fill:#FDFFFD;}
</style>
<g>
	<path class="st0" d="M16,504L16,504c0-82.8,67.2-150,150-150h780c82.8,0,150,67.2,150,150v0c0,82.8-67.2,150-150,150H166
		C83.2,654,16,586.8,16,504z"/>
</g>
<path class="st1" d="M1061,491"/>
<path class="st1" d="M32,491"/>
<path class="st1" d="M1029.8,504.1"/>
<path class="st1" d="M12.2,504.1"/>
<path class="st1" d="M555.5,404"/>
<path class="st1" d="M96.5,377"/>
<path class="st2" d="M282,344.5"/>
<path class="st2" d="M170,344.5"/>
<path class="st2" d="M170,477.5"/>
<path class="st2" d="M282,477.5"/>
<g>
	<line class="st0" x1="1104" y1="540.9" x2="24" y2="540.9"/>
</g>
<g>
	<path class="st0" d="M1104,240.9"/>
</g>
<g>
	<path class="st0" d="M24,240.9"/>
</g>
<g id="tiemerkint채_5_">
	<path class="st3" d="M1890.1,393.6"/>
</g>
<g id="tiemerkint채_3_">
	<path class="st3" d="M-29.9,390.9"/>
</g>
<path class="st2" d="M306,233.9"/>
<path class="st2" d="M306,366.9"/>
<g>
	<path class="st0" d="M162-428.5L162-428.5c82.8,0,150,67.2,150,150v780c0,82.8-67.2,150-150,150h0c-82.8,0-150-67.2-150-150
		c0-17.2,0-34.3,0-51.5c0-242.8,0-485.7,0-728.5C12-361.4,79.2-428.5,162-428.5z"/>
</g>
<g>
	<g>
		<rect x="138.1" y="343.2" class="st4" width="3.5" height="42.5"/>
	</g>
	<g>
		<polyline class="st4" points="141.6,272.7 138.1,272.7 138.1,230.2 141.6,230.2 		"/>
	</g>
	<g>
		<polyline class="st4" points="138.1,117.2 141.6,117.2 141.6,159.7 138.1,159.7 		"/>
	</g>
	<g>
		<rect x="138.1" y="4.2" class="st4" width="3.5" height="42.5"/>
	</g>
	<g>
		<rect x="138.1" y="-108.8" class="st4" width="3.5" height="42.5"/>
	</g>
	<g>
		<rect x="138.1" y="-221.8" class="st4" width="3.5" height="42.5"/>
	</g>
</g>
<rect x="870" y="351" class="st0" width="210" height="299"/>
<g id="tiemerkint채_7_">
	<path class="st3" d="M1866.1,504.2"/>
</g>
<g id="tiemerkint채_1_">
	<path class="st3" d="M-53.9,501.5"/>
</g>
</svg>
