<svg width="267" height="38" xmlns="http://www.w3.org/2000/svg" xmlns:xlink="http://www.w3.org/1999/xlink"><defs><path id="a" d="M.496.884H27v35.768H.496z"/><path id="c" d="M.8.754h23.938v36.245H.801z"/></defs><g fill="none" fill-rule="evenodd"><g transform="translate(240 .246)"><mask id="b" fill="#fff"><use xlink:href="#a"/></mask><path d="M27 2.66c0 1.167-.908 6.017-1.738 8.96-.318 1.165-.866 1.646-1.817 1.646-.996 0-1.319-.684-1.336-2.51-.046-3.68-.177-5.888-2.734-5.888-.515 0-.813.218-.91.734-.824 4.504-1.903 11.467-3.856 25.198-.035.306-.08.695-.08.951 0 1.431.031 1.763.866 2.21.56.3.82.697.82 1.34 0 1.04-1.08 1.351-1.947 1.351-1.129 0-2.338-.223-4.804-.223-2.393 0-3.427.223-4.72.223-1.607 0-1.993-.568-1.993-1.395 0-.687.34-1.1.903-1.339.95-.387 1.506-.609 1.871-2.557 1.67-9.004 3.431-23.546 3.63-24.892.152-.994 0-1.6-.609-1.6-3.285 0-3.585 2.597-4.5 5.798-.605 2.138-1.429 2.553-2.208 2.553-1.127 0-1.342-.644-1.342-1.902 0-.995 1.255-7.619 1.518-8.789.23-1.036.477-1.603 2.073-1.603 1.344 0 1.606.435 2.865.435h15.281c1.254 0 2.04-.477 3.03-.477C26.738.884 27 1.664 27 2.66" fill="#FFF" mask="url(#b)"/></g><path d="M218.718 2.99c0 .826-.475 1.126-1.299 1.474-.54.226-1.075.394-1.343 1.861-2.203 12.072-3.808 25.329-3.808 26.235 0 .952.216 1.346.991 1.691.478.21.781.565.781 1.252 0 .917-.732 1.397-2.079 1.397-1.11 0-2.425-.181-4.502-.181-2.339 0-3.679.181-4.892.181-1.864 0-2.035-.7-2.035-1.353 0-.642.34-1.123 1.25-1.558.65-.303 1.138-.558 1.52-2.422.564-2.768 1.994-12.038 2.855-18.577h-.088c-5.889 13.033-7.576 17.668-7.576 17.668-.184.425-.518 1.039-1.083 1.039h-1.816c-.395 0-.66-.258-.779-.953l-2.9-17.492h-.133c-1.603 11.776-1.989 14.938-1.989 14.938-.176 1.309-.36 4.208-.36 4.37 0 1.129.344 1.424.837 1.603.477.176.947.521.947 1.384 0 .908-.73 1.353-1.858 1.353-.597 0-1.428-.163-2.639-.163-1.43 0-1.864.163-2.556.163-1.388 0-1.91-.524-1.91-1.266 0-1.037.642-1.358 1.262-1.558.95-.299 1.35-1.25 1.643-2.68 1.177-5.711 3.376-24.033 3.505-25.071.177-1.385-.16-1.68-.992-2.038-.827-.341-1.127-.862-1.127-1.425 0-.824.65-1.342 1.861-1.342 1.183 0 2.425.257 4.507.257 1.552 0 2.484-.257 3.281-.257 1.564 0 2.163.437 2.386 1.905l1.992 12.944h.09a297.185 297.185 0 005.54-12.816c.582-1.334 1.04-2.033 2.728-2.033.917 0 2.255.255 4.113.255 1.734 0 2.823-.255 3.593-.255 1.607 0 2.082.518 2.082 1.47m-57.463-.128c0 .909-.433 1.251-1.428 1.643-.869.345-.997.777-1.343 2.728-1.429 8.05-4.288 27.752-4.288 27.752-.253 1.641-.564 1.913-1.643 1.913h-1.863c-.606 0-1.194-.391-1.687-1.783l-7.75-21.817h-.175c-1.213 8.612-1.907 13.897-1.907 13.897-.238 1.738-.433 4.933-.433 5.277 0 1.04.39 1.391.911 1.645.538.275 1.036.48 1.036 1.385 0 .996-.82 1.396-1.947 1.396-.656 0-1.426-.16-2.64-.16-1.562 0-2.158.16-2.859.16-1.169 0-1.73-.478-1.73-1.351 0-.775.386-1.252 1.298-1.559.793-.261 1.153-.911 1.47-2.336.855-3.813 3.075-19.484 3.594-24.072.082-.736.131-1.647.131-2.076 0-.608-.305-.905-.78-1.085-1.124-.425-1.385-.951-1.385-1.6 0-.91.694-1.301 1.604-1.301 1.08 0 2.461.234 3.893.234 1.295-.002 2.21-.234 3.424-.234.95 0 1.282.267 1.82 1.776l5.761 16.235h.126c.267-1.648 1.074-7.575 1.074-7.575.245-1.74.485-4.898.485-5.759 0-1.168-.37-1.555-.782-1.732-.603-.259-1.168-.561-1.168-1.386 0-.951.693-1.559 2.037-1.559.623 0 1.944.238 2.77.239.873.001 2.018-.239 2.556-.239 1.17 0 1.818.349 1.818 1.344" fill="#FFF"/><g transform="translate(85 .246)"><mask id="d" fill="#fff"><use xlink:href="#c"/></mask><path d="M24.728 4.043c-.101 1.17-.78 4.201-1.476 6.582-.236.808-.69 1.214-1.515 1.214-.908 0-1.518-.565-1.478-1.605.027-.82.136-1.64.136-3.07 0-1.256-1.515-2.903-4.201-2.903-2.467 0-4.201 1.298-4.201 3.505 0 1.907.82 2.9 1.953 4.202 1.729 1.991 2.597 2.945 4.675 5.238 1.955 2.158 3.854 5.064 3.854 9.521 0 5.544-4.72 10.272-12.342 10.272-4.114 0-7.015-1.477-8.443-2.173-.63-.302-.986-.738-.866-1.683.085-.696.952-4.29 1.815-7.015.38-1.19.826-1.82 1.908-1.82.778 0 1.255.472 1.255 1.556 0 .658-.104 1.531-.171 2.815-.07 1.301-.306 4.545 4.934 4.545 2.385 0 4.027-1.557 4.027-3.592 0-1.556-.273-3.136-2.164-5.15a197.323 197.323 0 01-3.81-4.159c-2.902-3.247-4.071-5.587-4.071-9.307C4.547 4.391 9.789.753 16.412.753c3.464 0 5.456.78 6.84 1.343 1.116.455 1.562.91 1.476 1.947" fill="#FFF" mask="url(#d)"/></g><path d="M87.817 11.09c0 1.082-.224 2.554-.562 3.634-.531 1.688-1.171 2.209-2.212 2.209-.736 0-1.385-.083-1.816-.083-1.13 0-1.687.429-2.298 1.036-.69.694-1.082.825-1.601.825-.562 0-.734-.392-.734-1.345 0-.647.127-1.646.387-2.947.33-1.646.996-3.243 2.036-3.243.607 0 .954.215 2.033.215 1.604 0 2.204-.347 2.642-.821.562-.611.826-.825 1.43-.825.478 0 .695.565.695 1.345m-.394 9.091c0 1.083-.226 2.553-.56 3.637-.529 1.681-1.172 2.205-2.209 2.205-.733 0-1.385-.089-1.819-.089-1.126 0-1.689.44-2.294 1.04-.694.696-1.085.83-1.603.83-.563 0-.736-.394-.736-1.35 0-.642.13-1.64.39-2.94.331-1.65.995-3.247 2.033-3.247.61 0 .956.214 2.04.214 1.6 0 2.201-.346 2.641-.82.558-.609.817-.822 1.426-.822.473 0 .691.561.691 1.342M61.79 2.906c0 1.167-.91 6.018-1.73 8.96-.327 1.165-.867 1.646-1.82 1.646-.998 0-1.323-.684-1.344-2.51-.043-3.68-.17-5.888-2.726-5.888-.52 0-.815.218-.91.734-.825 4.504-1.904 11.468-3.855 25.198a8.135 8.135 0 00-.086.951c0 1.431.03 1.764.867 2.21.563.3.823.697.823 1.34 0 1.04-1.085 1.352-1.949 1.352-1.125 0-2.336-.224-4.803-.224-2.384 0-3.424.224-4.723.224-1.603 0-1.993-.569-1.993-1.395 0-.688.337-1.1.908-1.34.953-.386 1.5-.608 1.863-2.556 1.676-9.005 3.437-23.546 3.636-24.893.15-.994 0-1.6-.603-1.6-3.293 0-3.594 2.598-4.505 5.799-.609 2.138-1.428 2.553-2.208 2.553-1.126 0-1.344-.645-1.344-1.902 0-.995 1.258-7.62 1.517-8.79.23-1.035.65-1.602 2.253-1.602 1.21 0 1.254.434 2.685.434h15.282c1.26 0 2.037-.476 3.035-.476 1.472 0 1.73.778 1.73 1.775" fill="#FFF"/><path d="M37.76 26.849c0 1.165-1.084 5.978-2.038 8.743-.447 1.317-.952 1.6-2.858 1.6-1.383 0-5.108-.515-10.389-.515-3.087 0-5.089.223-5.502.223-1.604 0-1.994-.445-1.994-1.397 0-.686.34-1.101.911-1.34.953-.386 1.471-.606 1.865-2.556 1.682-8.39 3.516-23.246 3.637-24.59.18-1.986-.045-2.251-.695-2.598-.564-.302-.909-.648-.909-1.342 0-.908.521-1.557 2.557-1.557 1.122 0 2.857.215 4.284.215 2.078 0 2.86-.215 3.942-.215 2.208 0 2.642.518 2.642 1.386 0 .736-.434 1.254-1.172 1.513-.698.248-1.08.52-1.342 1.733-.865 4.022-2.036 11.127-3.853 24.893-.038.309-.087.696-.087.95 0 .83.39 1.305 1.431 1.305 3.724 0 5.662-3.34 6.623-6.802.253-.91.778-1.383 1.646-1.383.694 0 1.301.302 1.301 1.734M18.23 2.906c0 .821-.388 1.217-1.171 1.515-.69.264-1.082.52-1.342 1.731-.863 4.025-2.034 11.127-3.858 24.895-.034.308-.08.781-.08 1.037 0 1.428.01 1.721.865 2.123.615.286.818.697.818 1.34 0 .954-.771 1.352-1.901 1.352-1.256 0-3.302-.236-5.241-.236-1.69.005-3.07.236-4.33.236-1.601 0-1.99-.477-1.99-1.395 0-.688.35-1.07.907-1.34.87-.42 1.48-.605 1.865-2.556C4.412 23.215 6.288 8.36 6.406 7.02c.182-1.987-.045-2.252-.69-2.598-.563-.302-.913-.738-.913-1.431 0-.909.65-1.472 2.554-1.472 1.04 0 2.387.219 4.335.219 1.947 0 2.942-.218 3.897-.218 2.292 0 2.642.476 2.642 1.386m212.089 18.66s-.037-6.714-.127-10.609h-.13l-3.814 9.698c-.25.641-.555 1.3-.555 1.647s.215.436.514.436h3.38c.652 0 .745-.196.732-1.172m10.354 13.938c0 .951-.868 1.395-2.083 1.395-1.21 0-2.464-.226-4.113-.226-2.035 0-3.208.226-4.546.226-1.43 0-2.08-.522-2.08-1.395 0-.82.432-1.426 1.48-1.77.768-.265 1.049-.783 1.078-2.126l.09-3.938c.012-.65-.18-.737-.568-.737h-5.41c-.65 0-.813.226-1.002.65-.735 1.648-1.772 3.983-1.772 5.367 0 .395.172.907.784 1.17.564.255.945.695.945 1.384 0 .783-.471 1.395-1.815 1.395-.824 0-1.6-.162-2.9-.162-1.215 0-1.733.162-2.383.162-1.168 0-1.731-.478-1.731-1.352 0-.643.39-1.198.95-1.384 1.302-.422 1.883-1.894 2.164-2.555 6.082-14.06 9.707-23.076 9.707-23.076.369-.887.905-2.249.905-2.684 0-.824-.263-1.112-.867-1.385-.473-.216-.732-.43-.732-1.21 0-.998.694-1.43 2.637-1.43 4.072 0 5.2-.65 7.1-.65 1.26 0 1.638.628 1.693 2.468 0 0 .247 16.667.863 29.438.029.651.39.83.825 1.04.42.213.78.608.78 1.385M177.002 9.355c0-4.156-.983-5.113-3.019-5.113-5.756 0-7.643 18.837-7.643 24.164 0 4.613 1.157 5.585 2.97 5.585 4.936 0 7.692-17.49 7.692-24.636m8.593 5.063c0 11.912-7.105 22.828-17.368 22.828-6.454 0-10.395-5.074-10.395-12.475 0-13.813 7.058-23.729 17.235-23.729 7.106 0 10.528 4.546 10.528 13.376m-65.175 7.148s-.042-6.714-.128-10.609h-.13l-3.812 9.698c-.25.641-.563 1.3-.563 1.647s.217.436.522.436h3.38c.648 0 .747-.196.731-1.172m10.348 13.938c0 .951-.864 1.395-2.077 1.395-1.209 0-2.468-.226-4.113-.226-2.035 0-3.204.226-4.546.226-1.426 0-2.08-.522-2.08-1.395 0-.82.436-1.426 1.475-1.77.778-.265 1.05-.783 1.08-2.126l.085-3.938c.015-.65-.172-.737-.56-.737h-5.413c-.65 0-.805.226-.995.65-.74 1.648-1.777 3.983-1.777 5.367 0 .395.177.907.781 1.17.566.255.95.695.95 1.384 0 .783-.476 1.395-1.82 1.395-.819 0-1.599-.162-2.899-.162-1.212 0-1.73.162-2.38.162-1.169 0-1.735-.478-1.735-1.352 0-.643.395-1.198.956-1.384 1.3-.422 1.88-1.894 2.165-2.555 6.08-14.06 9.701-23.076 9.701-23.076.373-.887.906-2.249.906-2.684 0-.824-.265-1.112-.868-1.385-.474-.216-.734-.43-.734-1.21 0-.998.696-1.43 2.642-1.43 4.07 0 5.196-.65 7.101-.65 1.254 0 1.634.628 1.688 2.468 0 0 .25 16.667.866 29.438.033.651.392.83.824 1.04.42.213.777.608.777 1.385M67.85 21.566s-.04-6.714-.127-10.609h-.128l-3.813 9.698c-.25.641-.562 1.3-.562 1.647s.216.436.52.436h3.378c.649 0 .746-.195.733-1.172m10.352 13.938c0 .951-.868 1.395-2.078 1.395-1.214 0-2.471-.226-4.116-.226-2.034 0-3.205.226-4.545.226-1.43 0-2.08-.522-2.08-1.395 0-.82.433-1.426 1.472-1.77.779-.265 1.056-.783 1.085-2.126l.086-3.938c.013-.65-.176-.737-.563-.737H62.05c-.65 0-.803.226-.996.65-.736 1.648-1.774 3.983-1.774 5.367 0 .395.175.907.78 1.17.564.255.95.695.95 1.384 0 .783-.476 1.395-1.817 1.395-.823 0-1.604-.162-2.904-.162-1.211 0-1.731.162-2.378.162-1.17 0-1.735-.478-1.735-1.352 0-.643.395-1.198.953-1.384 1.3-.422 1.88-1.894 2.165-2.555 6.08-14.06 9.7-23.076 9.7-23.076.377-.887.91-2.249.91-2.684 0-.824-.266-1.112-.865-1.385-.48-.216-.737-.43-.737-1.21 0-.998.693-1.43 2.64-1.43 4.07 0 5.2-.65 7.103-.65 1.255 0 1.633.628 1.688 2.468 0 0 .249 16.667.867 29.438.03.651.39.83.824 1.04.419.213.779.608.779 1.385" fill="#FFF"/></g></svg>